<mxfile host="app.diagrams.net" modified="2023-09-03T12:56:16.229Z" agent="Mozilla/5.0 (Windows NT 10.0; Win64; x64) AppleWebKit/537.36 (KHTML, like Gecko) Chrome/116.0.0.0 Safari/537.36" version="21.7.2" etag="U2M5clTihsjCT9xNjz6h" type="github">
  <diagram name="第 1 页" id="gMvT2KQr7cUFvVYkVSMd">
    <mxGraphModel>
      <root>
        <mxCell id="0" />
        <mxCell id="1" parent="0" />
      </root>
    </mxGraphModel>
  </diagram>
</mxfile>
